<?xml version="1.0" standalone="no"?>
<!DOCTYPE svg PUBLIC "-//W3C//DTD SVG 20010904//EN"
 "http://www.w3.org/TR/2001/REC-SVG-20010904/DTD/svg10.dtd">
<svg version="1.0" xmlns="http://www.w3.org/2000/svg"
 width="1280.000000pt" height="679.000000pt" viewBox="0 0 1280.000000 679.000000"
 preserveAspectRatio="xMidYMid meet">
<metadata>
Created by potrace 1.15, written by Peter Selinger 2001-2017
</metadata>
<g transform="translate(0.000000,679.000000) scale(0.100000,-0.100000)"
fill="#000000" stroke="none">
<path d="M11745 6781 c-90 -22 -193 -116 -288 -262 -104 -160 -112 -184 -128
-389 -7 -97 -17 -159 -29 -187 -22 -49 -85 -144 -154 -230 -53 -67 -71 -77
-226 -123 -41 -12 -178 -62 -305 -110 -126 -48 -308 -111 -403 -140 -345 -103
-529 -173 -646 -248 -27 -17 -52 -29 -56 -27 -5 3 -23 33 -40 67 -92 176 -210
340 -311 429 -470 417 -1027 767 -1477 930 -331 119 -537 167 -932 215 -113
13 -297 36 -410 49 -240 29 -395 31 -665 10 -508 -41 -691 -73 -1055 -184
-330 -100 -478 -169 -783 -367 -279 -181 -465 -348 -663 -595 -174 -217 -215
-286 -481 -814 -184 -367 -310 -572 -397 -653 -39 -36 -252 -169 -351 -219
-28 -15 -70 -23 -140 -27 -327 -22 -563 -82 -660 -167 -120 -105 -159 -272
-153 -647 l3 -224 -35 6 c-105 16 -330 28 -441 22 -325 -16 -471 -113 -510
-340 -83 -483 439 -1062 1460 -1618 555 -303 1168 -542 1601 -623 728 -136
1662 -238 2660 -292 399 -21 1399 -24 1730 -4 864 50 1504 159 1973 337 358
137 965 461 1396 746 419 278 769 579 944 813 79 106 168 281 193 380 47 186
-2 409 -108 488 -106 80 -216 102 -468 94 -162 -5 -221 -10 -343 -32 -26 -4
-33 4 -132 153 l-104 158 -176 109 c-97 59 -178 112 -181 116 -2 5 9 48 26 96
l31 88 92 60 c294 192 602 438 797 636 87 88 172 166 195 177 68 33 221 72
423 108 208 37 317 71 475 151 150 75 203 141 268 334 56 168 51 335 -15 435
-49 73 -139 167 -194 203 -51 33 -137 50 -244 51 -57 0 -58 0 -58 29 0 16 22
80 49 144 75 173 84 213 83 353 -1 124 -18 229 -48 286 -23 45 -89 113 -144
148 -126 81 -334 128 -445 101z"/>
</g>
</svg>
